<mxfile host="app.diagrams.net" modified="2025-02-04T20:49:03.357Z" agent="Mozilla/5.0 (Macintosh; Intel Mac OS X 10_15_7) AppleWebKit/537.36 (KHTML, like Gecko) Chrome/132.0.0.0 Safari/537.36" etag="o4SpGeoHTyeZO9-WzmG_" version="24.3.1" type="device">
  <diagram name="Page-1" id="KWl66JMtrU4rDRNrkaNM">
    <mxGraphModel dx="1674" dy="915" grid="1" gridSize="10" guides="1" tooltips="1" connect="1" arrows="1" fold="1" page="1" pageScale="1" pageWidth="850" pageHeight="1100" math="0" shadow="0">
      <root>
        <mxCell id="0" />
        <mxCell id="1" parent="0" />
        <mxCell id="0ofLOKrbr82iYHxboVZV-2" value="" style="rounded=1;whiteSpace=wrap;html=1;" vertex="1" parent="1">
          <mxGeometry x="60" y="50" width="220" height="440" as="geometry" />
        </mxCell>
        <mxCell id="0ofLOKrbr82iYHxboVZV-7" style="edgeStyle=orthogonalEdgeStyle;rounded=0;orthogonalLoop=1;jettySize=auto;html=1;" edge="1" parent="1" source="0ofLOKrbr82iYHxboVZV-1" target="0ofLOKrbr82iYHxboVZV-6">
          <mxGeometry relative="1" as="geometry" />
        </mxCell>
        <mxCell id="0ofLOKrbr82iYHxboVZV-1" value="" style="whiteSpace=wrap;html=1;aspect=fixed;" vertex="1" parent="1">
          <mxGeometry x="89" y="161" width="169" height="169" as="geometry" />
        </mxCell>
        <mxCell id="0ofLOKrbr82iYHxboVZV-4" value="VPC" style="text;html=1;align=center;verticalAlign=middle;resizable=0;points=[];autosize=1;strokeColor=none;fillColor=none;" vertex="1" parent="1">
          <mxGeometry x="210" y="29" width="50" height="30" as="geometry" />
        </mxCell>
        <mxCell id="0ofLOKrbr82iYHxboVZV-5" value="" style="sketch=0;points=[[0,0,0],[0.25,0,0],[0.5,0,0],[0.75,0,0],[1,0,0],[0,1,0],[0.25,1,0],[0.5,1,0],[0.75,1,0],[1,1,0],[0,0.25,0],[0,0.5,0],[0,0.75,0],[1,0.25,0],[1,0.5,0],[1,0.75,0]];outlineConnect=0;fontColor=#232F3E;fillColor=#ED7100;strokeColor=#ffffff;dashed=0;verticalLabelPosition=bottom;verticalAlign=top;align=center;html=1;fontSize=12;fontStyle=0;aspect=fixed;shape=mxgraph.aws4.resourceIcon;resIcon=mxgraph.aws4.eks_cloud;" vertex="1" parent="1">
          <mxGeometry x="90" y="161" width="39" height="39" as="geometry" />
        </mxCell>
        <mxCell id="0ofLOKrbr82iYHxboVZV-6" value="RDS" style="outlineConnect=0;dashed=0;verticalLabelPosition=bottom;verticalAlign=top;align=center;html=1;shape=mxgraph.aws3.rds;fillColor=#2E73B8;gradientColor=none;" vertex="1" parent="1">
          <mxGeometry x="136.69" y="375" width="72" height="81" as="geometry" />
        </mxCell>
        <mxCell id="0ofLOKrbr82iYHxboVZV-9" value="EKS" style="text;html=1;align=center;verticalAlign=middle;resizable=0;points=[];autosize=1;strokeColor=none;fillColor=none;" vertex="1" parent="1">
          <mxGeometry x="120" y="165.5" width="50" height="30" as="geometry" />
        </mxCell>
        <mxCell id="0ofLOKrbr82iYHxboVZV-10" value="" style="outlineConnect=0;dashed=0;verticalLabelPosition=bottom;verticalAlign=top;align=center;html=1;shape=mxgraph.aws3.application_load_balancer;fillColor=#F58534;gradientColor=none;" vertex="1" parent="1">
          <mxGeometry x="148" y="59" width="50" height="52" as="geometry" />
        </mxCell>
        <mxCell id="0ofLOKrbr82iYHxboVZV-12" style="edgeStyle=orthogonalEdgeStyle;rounded=0;orthogonalLoop=1;jettySize=auto;html=1;" edge="1" parent="1" source="0ofLOKrbr82iYHxboVZV-10">
          <mxGeometry relative="1" as="geometry">
            <mxPoint x="173" y="160" as="targetPoint" />
          </mxGeometry>
        </mxCell>
        <mxCell id="0ofLOKrbr82iYHxboVZV-13" value="Wordpress" style="dashed=0;outlineConnect=0;html=1;align=center;labelPosition=center;verticalLabelPosition=bottom;verticalAlign=top;shape=mxgraph.weblogos.wordpress;fillColor=#00A7DA;strokeColor=none" vertex="1" parent="1">
          <mxGeometry x="138" y="217" width="66.60000000000001" height="65.4" as="geometry" />
        </mxCell>
        <mxCell id="0ofLOKrbr82iYHxboVZV-15" value="" style="endArrow=none;html=1;rounded=0;" edge="1" parent="1">
          <mxGeometry width="50" height="50" relative="1" as="geometry">
            <mxPoint x="170.69" y="59" as="sourcePoint" />
            <mxPoint x="171" y="10" as="targetPoint" />
          </mxGeometry>
        </mxCell>
        <mxCell id="0ofLOKrbr82iYHxboVZV-16" value="Data Layer" style="text;html=1;align=center;verticalAlign=middle;resizable=0;points=[];autosize=1;strokeColor=none;fillColor=none;" vertex="1" parent="1">
          <mxGeometry x="280" y="420" width="80" height="30" as="geometry" />
        </mxCell>
        <mxCell id="0ofLOKrbr82iYHxboVZV-17" value="Application Layer" style="text;html=1;align=center;verticalAlign=middle;resizable=0;points=[];autosize=1;strokeColor=none;fillColor=none;" vertex="1" parent="1">
          <mxGeometry x="277" y="260" width="120" height="30" as="geometry" />
        </mxCell>
        <mxCell id="0ofLOKrbr82iYHxboVZV-18" value="Web layer" style="text;html=1;align=center;verticalAlign=middle;resizable=0;points=[];autosize=1;strokeColor=none;fillColor=none;" vertex="1" parent="1">
          <mxGeometry x="277" y="81" width="80" height="30" as="geometry" />
        </mxCell>
        <mxCell id="0ofLOKrbr82iYHxboVZV-19" value="ALB" style="text;html=1;align=center;verticalAlign=middle;resizable=0;points=[];autosize=1;strokeColor=none;fillColor=none;" vertex="1" parent="1">
          <mxGeometry x="100" y="70" width="50" height="30" as="geometry" />
        </mxCell>
        <mxCell id="0ofLOKrbr82iYHxboVZV-20" value="&amp;nbsp;" style="text;html=1;align=center;verticalAlign=middle;resizable=0;points=[];autosize=1;strokeColor=none;fillColor=none;" vertex="1" parent="1">
          <mxGeometry x="35" y="220" width="30" height="30" as="geometry" />
        </mxCell>
        <mxCell id="0ofLOKrbr82iYHxboVZV-21" value="US EAST" style="text;html=1;align=center;verticalAlign=middle;resizable=0;points=[];autosize=1;strokeColor=none;fillColor=none;" vertex="1" parent="1">
          <mxGeometry x="198" y="50" width="70" height="30" as="geometry" />
        </mxCell>
        <mxCell id="0ofLOKrbr82iYHxboVZV-22" value="subnet" style="text;html=1;align=center;verticalAlign=middle;resizable=0;points=[];autosize=1;strokeColor=none;fillColor=none;" vertex="1" parent="1">
          <mxGeometry x="204.6" y="140" width="60" height="30" as="geometry" />
        </mxCell>
      </root>
    </mxGraphModel>
  </diagram>
</mxfile>
